<svg id="Layer_1" data-name="Layer 1" xmlns="http://www.w3.org/2000/svg" viewBox="0 0 156.05 73.33">
  <title>epi-logo</title>
  <g>
    <path d="M8.61,8c0,30.8,26.68,55.72,59.65,55.72" fill="none" stroke="#1d1d1b" stroke-miterlimit="10" stroke-width="8.02"/>
    <path d="M8.61,8C8.61,28.29,36,44.7,69.73,44.7" fill="none" stroke="#1d1d1b" stroke-miterlimit="10" stroke-width="7.86"/>
    <path d="M69.73,26.09C42.89,26.09,8.61,16.85,8.61,8" fill="none" stroke="#1d1d1b" stroke-miterlimit="10" stroke-width="7.24"/>
    <path d="M70.73,63.72A5.29,5.29,0,1,0,65.44,69,5.29,5.29,0,0,0,70.73,63.72Z" fill="#fff" stroke="#1d1d1b" stroke-miterlimit="10" stroke-width="3"/>
    <path d="M70.73,44.7A5.29,5.29,0,1,0,65.44,50,5.29,5.29,0,0,0,70.73,44.7Z" fill="#fff" stroke="#1d1d1b" stroke-miterlimit="10" stroke-width="3"/>
    <path d="M70.73,26.09a5.29,5.29,0,1,0-5.29,5.29A5.29,5.29,0,0,0,70.73,26.09Z" fill="#fff" stroke="#1d1d1b" stroke-miterlimit="10" stroke-width="3"/>
    <path d="M14.9,9.61A5.29,5.29,0,1,1,9.61,4.32,5.29,5.29,0,0,1,14.9,9.61Z" fill="#fff" stroke="#1d1d1b" stroke-miterlimit="10" stroke-width="3"/>
  </g>
  <path d="M151.48,28.25a3.64,3.64,0,1,1-3.64-3.64A3.64,3.64,0,0,1,151.48,28.25Z"/>
  <path d="M117.71,54.12a10.13,10.13,0,0,1,3.53,1c1,.48,1.87,1.22,2.45,1.24a8.41,8.41,0,0,0,5-.32A10.2,10.2,0,0,0,131,54.93a4.29,4.29,0,0,0,1.32-1.31c0-.06,0,0,0,0s.06-.3.09-.51c.06-.44.1-.94.14-1.44.06-1,.09-2.05.06-3.06a23.7,23.7,0,0,0-.18-3,10.34,10.34,0,0,0-.54-2.37,1.73,1.73,0,0,0-.12-.26c-.05-.08-.17-.24-.26-.35a4.39,4.39,0,0,0-.69-.67,5.17,5.17,0,0,0-1.85-.91,9.19,9.19,0,0,0-5.1.33c-.24.06-.46.17-.7.25l-.35.13-.15.05s0,0,0,0c-.21.09-.7.47-1.15.75a8.84,8.84,0,0,1-1.63.8,5.05,5.05,0,0,1-1,.27,1.68,1.68,0,0,1-1.14-.1,2.68,2.68,0,0,0,.31-.9c.06-.31.14-.58.22-.87a7.94,7.94,0,0,1,.68-1.62,6,6,0,0,1,1.25-1.58c.1-.08.21-.17.36-.27l.22-.14.39-.26c.27-.17.52-.35.8-.5a12.89,12.89,0,0,1,7.89-1.86,10.05,10.05,0,0,1,4.31,1.54A9.48,9.48,0,0,1,136,38.58a9.66,9.66,0,0,1,.78,1,7.27,7.27,0,0,1,.69,1.2,14.34,14.34,0,0,1,1.09,4.1,33.7,33.7,0,0,1,.26,3.7c0,1.21,0,2.4-.15,3.62,0,.61-.12,1.22-.22,1.88-.06.34-.11.66-.23,1.13a6,6,0,0,1-.67,1.53A9.42,9.42,0,0,1,134,59.92a13.44,13.44,0,0,1-3.9,1.45A12.08,12.08,0,0,1,122,60.3l-.44-.26-.24-.14-.32-.21c-.31-.25-.56-.47-.78-.68a9.36,9.36,0,0,1-1.19-1.34A6.93,6.93,0,0,1,117.71,54.12Z" fill="#1d1d1b"/>
  <rect x="90.63" y="21.58" width="21.25" height="5.18" fill="#1d1d1b"/>
  <rect x="90.63" y="22.64" width="5.57" height="38.22" fill="#1d1d1b"/>
  <rect x="90.63" y="56.05" width="21.25" height="5.18" fill="#1d1d1b"/>
  <rect x="90.63" y="39.16" width="19.15" height="5.18" fill="#1d1d1b"/>
  <rect x="145.06" y="35.86" width="5.57" height="25.36" fill="#1d1d1b"/>
  <rect x="116.32" y="35.86" width="5.57" height="36.21" fill="#1d1d1b"/>
</svg>
