<?xml version="1.0" encoding="UTF-8"?>
<svg id="uuid-f9639dd2-8fc4-461c-b072-9d943cd5a6a8" data-name="Layer 1" xmlns="http://www.w3.org/2000/svg" viewBox="0 0 73.33 73.33">
  <path d="M7.35,7.41c0,30.8,26.68,55.72,59.65,55.72" style="fill: none; stroke: #1d1d1b; stroke-miterlimit: 10; stroke-width: 8.02px;"/>
  <path d="M7.35,7.41c0,20.28,27.34,36.7,61.12,36.7" style="fill: none; stroke: #1d1d1b; stroke-miterlimit: 10; stroke-width: 7.86px;"/>
  <path d="M68.48,25.5C41.63,25.5,7.35,16.26,7.35,7.41" style="fill: none; stroke: #1d1d1b; stroke-miterlimit: 10; stroke-width: 7.24px;"/>
  <path d="M69.48,63.13c0-2.92-2.37-5.29-5.29-5.29s-5.29,2.37-5.29,5.29,2.37,5.29,5.29,5.29,5.29-2.37,5.29-5.29Z" style="fill: #fff; stroke: #1d1d1b; stroke-miterlimit: 10; stroke-width: 3px;"/>
  <path d="M69.48,44.11c0-2.92-2.37-5.29-5.29-5.29s-5.29,2.37-5.29,5.29,2.37,5.29,5.29,5.29,5.29-2.37,5.29-5.29Z" style="fill: #fff; stroke: #1d1d1b; stroke-miterlimit: 10; stroke-width: 3px;"/>
  <path d="M69.48,25.5c0-2.92-2.37-5.29-5.29-5.29s-5.29,2.37-5.29,5.29,2.37,5.29,5.29,5.29,5.29-2.37,5.29-5.29Z" style="fill: #fff; stroke: #1d1d1b; stroke-miterlimit: 10; stroke-width: 3px;"/>
  <path d="M13.64,9.02c0,2.92-2.37,5.29-5.29,5.29s-5.29-2.37-5.29-5.29,2.37-5.29,5.29-5.29,5.29,2.37,5.29,5.29Z" style="fill: #fff; stroke: #1d1d1b; stroke-miterlimit: 10; stroke-width: 3px;"/>
</svg>