<svg width="221" height="92" viewBox="0 0 221 92" fill="none" xmlns="http://www.w3.org/2000/svg">
<path d="M201.885 69.1333V68.4864H202.726C203.89 68.4864 204.861 68.3139 205.637 67.9689C206.456 67.6238 207.06 67.1063 207.448 66.4162C207.837 65.7262 208.031 64.8636 208.031 63.8285V27.9885C208.031 26.9965 207.837 26.177 207.448 25.5301C207.06 24.8832 206.456 24.4088 205.637 24.1069C204.861 23.7618 203.89 23.5893 202.726 23.5893H201.885V22.9424H220.71V23.5893H219.869C218.705 23.5893 217.713 23.7618 216.894 24.1069C216.117 24.4519 215.535 24.9694 215.147 25.6595C214.759 26.3496 214.565 27.2121 214.565 28.2472V63.8285C214.565 64.8636 214.759 65.7262 215.147 66.4162C215.535 67.1063 216.117 67.6238 216.894 67.9689C217.713 68.3139 218.705 68.4864 219.869 68.4864H220.71V69.1333H201.885Z" fill="white"/>
<path d="M153.812 69.1333V68.4864H155.689C156.637 68.4864 157.435 68.3355 158.082 68.0336C158.729 67.7317 159.29 67.2141 159.764 66.4809C160.239 65.7477 160.692 64.7342 161.123 63.4403L175.226 22.9424H178.525L194.763 65.0577C195.108 65.9202 195.453 66.6103 195.798 67.1278C196.143 67.6023 196.532 67.9473 196.963 68.1629C197.437 68.3786 197.976 68.4864 198.58 68.4864H199.421V69.1333H181.631V68.4864H183.119C184.757 68.4864 185.943 68.2923 186.677 67.9042C187.41 67.516 187.776 66.8259 187.776 65.834C187.776 65.5752 187.755 65.3164 187.712 65.0577C187.669 64.7558 187.604 64.4323 187.518 64.0873C187.475 63.7422 187.367 63.3756 187.194 62.9875L183.248 52.3778H165.716L162.158 62.5346C162.029 62.8797 161.921 63.2247 161.834 63.5697C161.748 63.9147 161.684 64.2382 161.64 64.5401C161.597 64.7989 161.576 65.0577 161.576 65.3164C161.576 66.4809 162.093 67.3004 163.128 67.7748C164.163 68.2492 165.824 68.4864 168.11 68.4864H169.598V69.1333H153.812ZM165.91 51.7309H182.989L178.267 39.1157C177.706 37.6493 177.188 36.2476 176.714 34.9106C176.239 33.5736 175.787 32.3013 175.355 31.0937C174.967 29.843 174.601 28.6354 174.256 27.4709C173.954 28.4197 173.673 29.3039 173.415 30.1233C173.156 30.8996 172.897 31.676 172.638 32.4523C172.379 33.2286 172.078 34.0696 171.733 34.9753C171.431 35.8379 171.086 36.8514 170.697 38.0159L165.91 51.7309Z" fill="white"/>
<path d="M126.281 91.9658L150.594 0H151.651L127.338 91.9658H126.281Z" fill="white"/>
<path d="M84.3349 27.0827C84.033 26.177 83.6879 25.487 83.2998 25.0126C82.9116 24.495 82.4372 24.1284 81.8765 23.9128C81.3158 23.6971 80.5827 23.5893 79.677 23.5893H78.8359V22.9424H96.6266V23.5893H95.0739C93.6938 23.5893 92.6803 23.7834 92.0334 24.1716C91.3864 24.5166 91.063 25.142 91.063 26.0477C91.063 26.3064 91.0845 26.6083 91.1277 26.9534C91.1708 27.2553 91.2355 27.5787 91.3217 27.9238C91.4511 28.2688 91.5805 28.657 91.7099 29.0882L99.7318 52.1837C100.12 53.2619 100.465 54.297 100.767 55.289C101.112 56.2809 101.435 57.2513 101.737 58.2002C102.039 59.149 102.298 60.0547 102.514 60.9173C102.772 61.7799 103.01 62.6209 103.225 63.4403C103.57 62.319 103.937 61.1329 104.325 59.8822C104.713 58.5883 105.123 57.2945 105.554 56.0006C105.986 54.6636 106.395 53.3913 106.783 52.1837L114.158 29.6058C114.331 29.1314 114.46 28.7216 114.547 28.3766C114.633 27.9885 114.698 27.6219 114.741 27.2768C114.827 26.9318 114.87 26.6299 114.87 26.3711C114.87 25.336 114.525 24.6244 113.835 24.2362C113.145 23.805 112.045 23.5893 110.536 23.5893H106.719V22.9424H122.504V23.5893H120.175C119.355 23.5893 118.665 23.7403 118.105 24.0422C117.544 24.3441 117.048 24.8616 116.617 25.5948C116.185 26.328 115.754 27.32 115.323 28.5707L101.931 69.1333H99.1496L84.3349 27.0827Z" fill="white"/>
<path d="M56.0854 69.781C51.5137 69.781 47.7184 68.789 44.6994 66.8051C41.6804 64.8211 39.4161 62.0393 37.9066 58.4596C36.4402 54.88 35.707 50.6965 35.707 45.9092C35.707 41.1219 36.4402 36.9599 37.9066 33.4234C39.4161 29.8868 41.6804 27.1481 44.6994 25.2073C47.7615 23.2234 51.5784 22.2314 56.1501 22.2314C60.5061 22.2314 64.172 23.2234 67.1479 25.2073C70.1669 27.1481 72.4528 29.9084 74.0054 33.4881C75.6012 37.0246 76.3991 41.1866 76.3991 45.9739C76.3991 50.7612 75.6012 54.9447 74.0054 58.5243C72.4528 62.0609 70.1669 64.8211 67.1479 66.8051C64.1289 68.789 60.4414 69.781 56.0854 69.781ZM56.0854 69.134C58.3712 69.134 60.3336 68.7027 61.9725 67.8402C63.6545 66.9345 65.0131 65.5543 66.0481 63.6998C67.1264 61.8021 67.9242 59.3869 68.4418 56.4542C68.9593 53.5214 69.2181 50.028 69.2181 45.9739C69.2181 41.9198 68.9593 38.4479 68.4418 35.5582C67.9242 32.6255 67.1264 30.2318 66.0481 28.3773C65.0131 26.4796 63.6761 25.0995 62.0372 24.2369C60.3983 23.3312 58.4359 22.8784 56.1501 22.8784C53.8211 22.8784 51.8156 23.3312 50.1336 24.2369C48.4947 25.0995 47.1362 26.4796 46.0579 28.3773C44.9797 30.2318 44.1818 32.6255 43.6643 35.5582C43.1468 38.4479 42.888 41.9198 42.888 45.9739C42.888 50.028 43.1468 53.5214 43.6643 56.4542C44.1818 59.3869 44.9582 61.8021 45.9932 63.6998C47.0715 65.5543 48.43 66.9345 50.0689 67.8402C51.7509 68.7027 53.7564 69.134 56.0854 69.134Z" fill="white"/>
<path d="M13.5856 69.7807C11.4723 69.7807 9.57459 69.5651 7.89257 69.1338C6.21055 68.6594 4.76573 68.034 3.55813 67.2577C2.39365 66.4382 1.50951 65.4894 0.905705 64.4112C0.301902 63.333 0 62.1469 0 60.8531C0 59.8611 0.172515 59.0416 0.517546 58.3947C0.905705 57.7046 1.44482 57.1871 2.13488 56.8421C2.82494 56.497 3.66595 56.3245 4.65791 56.3245C4.70104 59.1279 5.04607 61.5 5.693 63.4408C6.38306 65.3385 7.41816 66.7617 8.79828 67.7105C10.1784 68.6594 11.9251 69.1338 14.0384 69.1338C16.7987 69.1338 19.0198 68.3359 20.7018 66.7401C22.427 65.1012 23.2896 62.7076 23.2896 59.5592C23.2896 57.6184 22.923 56.0442 22.1898 54.8366C21.4997 53.629 20.3568 52.5508 18.761 51.6019C17.2084 50.61 15.1598 49.5317 12.6152 48.3673C11.2782 47.7203 9.89806 47.0303 8.47481 46.2971C7.09469 45.5208 5.80082 44.6151 4.59322 43.58C3.42874 42.5017 2.47991 41.2079 1.74672 39.6984C1.05666 38.1457 0.711626 36.3128 0.711626 34.1995C0.711626 31.6117 1.2723 29.4337 2.39365 27.6654C3.515 25.8972 5.0892 24.5602 7.11625 23.6545C9.18644 22.7488 11.6016 22.2959 14.3619 22.2959C16.9065 22.2959 19.1061 22.6409 20.9606 23.331C22.8583 24.0211 24.3246 24.9268 25.3597 26.0481C26.438 27.1695 26.9771 28.3986 26.9771 29.7356C26.9771 30.9864 26.5027 31.9783 25.5538 32.7115C24.605 33.4016 23.3758 33.7466 21.8663 33.7466C21.8663 31.3745 21.6075 29.3906 21.09 27.7948C20.6156 26.1991 19.8177 24.9914 18.6963 24.172C17.575 23.3526 16.1086 22.9428 14.2972 22.9428C12.6583 22.9428 11.2135 23.2879 9.96275 23.9779C8.71202 24.6249 7.74162 25.6168 7.05156 26.9538C6.40463 28.2477 6.08116 29.8866 6.08116 31.8705C6.08116 33.9838 6.46932 35.6874 7.24564 36.9813C8.02196 38.2751 9.18644 39.3965 10.7391 40.3453C12.3348 41.251 14.3188 42.2645 16.6908 43.3859C18.8473 44.3779 20.8312 45.4129 22.6426 46.4912C24.4972 47.5694 25.9851 48.9279 27.1065 50.5668C28.2278 52.2057 28.7885 54.3622 28.7885 57.0362C28.7885 59.667 28.1847 61.9313 26.9771 63.8289C25.8126 65.7266 24.0874 67.193 21.8016 68.2281C19.5589 69.2632 16.8202 69.7807 13.5856 69.7807Z" fill="white"/>
</svg>
